# xmcd CD database file
#
# Track frame offsets:
#	150
#	16751
#	32100
#	45717
#	60338
#	71680
#	88065
#	105180
#	121620
#	138160
#	156579
#	175594
#	189097
#	205504
#	217855
#
# Disc length: 3144 seconds
#
# Revision: 0
# Processed by: cddbd v1.5.1PL2 Copyright (c) Steve Scherf et al.
# Submitted via: CDex 1.51
#
DISCID=b30c460f
DTITLE=Variuous - Classic Country - "80s Love Songs (disk 2)
DYEAR=2005
DGENRE=Country
TTITLE0=Any Day Now/Ronnie Milsap
TTITLE1=Twinkle, Twinkle, Lucky Star/Merle Haggard
TTITLE2=I Wouldn't Change You If I Could/Ricky Skaggs
TTITLE3=Could I Have This Dance/Anne Murray
TTITLE4=Cry, Cry, Cry/Highway 101
TTITLE5=Stand By Me/Mickey Gilley
TTITLE6=Real Love/Dolly Parton and Kenny Rogers
TTITLE7=Love Is On A Roll/Don Williams
TTITLE8=I Told You So/Randy Travis
TTITLE9=Do Ya'/K.T. Oslin
TTITLE10=There's No Way/Alabama
TTITLE11=Baby's Got Her Blue Jeans On/Mel McDaniel
TTITLE12=It Ain't Easy Being Easy/Janie Fricke
TTITLE13=Night Games/Charlie Pride
TTITLE14=Too Much On My Heart/The Statler Brothers
EXTD=YEAR: 2005
EXTT0=
EXTT1=
EXTT2=
EXTT3=
EXTT4=
EXTT5=
EXTT6=
EXTT7=
EXTT8=
EXTT9=
EXTT10=
EXTT11=
EXTT12=
EXTT13=
EXTT14=
PLAYORDER=
